REM MD5 c3a876473092fcb22306f9cc4babc3bb
FILE "World Cup Golf - Professional Edition (France).bin" BINARY
  TRACK 01 MODE2/2352
    INDEX 01 00:00:00
  TRACK 02 AUDIO
    INDEX 00 58:22:47
    INDEX 01 58:24:47
  TRACK 03 AUDIO
    INDEX 00 61:11:71
    INDEX 01 61:13:71
REM LEADOUT 64:26:23
